<?xml version="1.0" encoding="UTF-8"?>
<svg width="71px" height="92px" viewBox="0 0 71 92" version="1.1" xmlns="http://www.w3.org/2000/svg" xmlns:xlink="http://www.w3.org/1999/xlink">
    <!-- Generator: Sketch 51.3 (57544) - http://www.bohemiancoding.com/sketch -->
    <title>anchor</title>
    <desc>Created with Sketch.</desc>
    <defs></defs>
    <g id="anchor" stroke="none" stroke-width="1" fill="none" fill-rule="evenodd">
        <g transform="translate(0.000000, 1.000000)" fill="#000000" fill-rule="nonzero" id="Shape">
            <path d="M58.608,60.388 L63.64,61.585 C61.405,64.142 59.647,65.979 59.647,65.979 C57.411,67.976 55.653,69.253 55.653,69.253 C52.938,70.931 51.1,71.33 51.1,71.33 C49.423,71.57 47.949,71.572 47.949,71.572 C47.767,71.537 47.586,71.504 47.406,71.469 C46.444,71.288 45.553,70.985 45.01,70.811 C44.572,70.669 44.331,70.542 44.331,70.542 C43.046,69.853 42.313,68.933 42.313,68.933 C41.595,67.895 41.275,66.857 41.275,66.857 C40.957,65.738 40.796,64.141 40.796,64.141 C40.557,61.825 40.317,59.428 40.317,59.428 C39.758,47.366 39.519,33.547 39.519,33.547 C39.439,24.442 39.359,21.326 39.359,21.326 C39.838,20.448 40.478,19.649 40.478,19.649 C41.276,19.329 42.713,18.93 42.713,18.93 C46.388,18.451 49.184,18.211 49.184,18.211 C50.359,18.211 51.854,17.838 52.739,18.85 C53.138,19.069 53.458,19.153 53.837,18.9 C54.677,18.34 54.68,17.575 54.804,16.639 C54.871,16.125 54.976,15.536 54.937,15.016 C54.777,12.859 54.696,11.581 54.696,11.581 C54.436,11.284 54.092,10.845 53.699,10.719 C52.782,10.426 52.284,11.142 51.661,11.661 C51.182,12.06 50.623,12.06 50.623,12.06 C46.949,11.9 44.393,11.421 44.393,11.421 C41.518,10.862 40.16,10.702 40.16,10.702 C39.361,10.303 39.042,9.344 39.042,9.344 C38.64,8.387 38.64,7.029 38.64,7.029 C38.64,6.071 38.799,5.192 38.799,5.192 C39.278,4.713 39.359,4.153 39.359,4.153 C39.199,3.035 38.799,2.157 38.799,2.157 C38,1.278 37.281,0.639 37.281,0.639 C36.403,0.16 35.524,0 35.524,0 L34.826,0 C34.826,0 33.948,0.16 33.069,0.639 C33.069,0.639 32.35,1.278 31.552,2.157 C31.552,2.157 31.152,3.035 30.992,4.153 C30.992,4.153 31.072,4.713 31.552,5.192 C31.552,5.192 31.712,6.071 31.712,7.029 C31.712,7.029 31.712,8.387 31.312,9.346 C31.312,9.346 30.993,10.304 30.194,10.704 C30.194,10.704 28.836,10.864 25.96,11.423 C25.96,11.423 23.404,11.902 19.73,12.062 C19.73,12.062 19.17,12.062 18.691,11.663 C18.268,11.311 17.801,10.726 17.229,10.641 C16.551,10.54 16.055,11.127 15.656,11.583 C15.656,11.583 15.576,12.861 15.417,15.018 C15.443,15.644 15.491,16.277 15.583,16.898 C15.645,17.32 15.642,17.862 15.846,18.245 C16.119,18.76 17.066,19.478 17.614,18.852 C18.446,17.902 20.043,18.213 21.169,18.213 C21.169,18.213 23.965,18.452 27.639,18.932 C27.639,18.932 29.077,19.331 29.876,19.651 C29.876,19.651 30.515,20.449 30.994,21.328 C30.994,21.328 30.914,24.444 30.834,33.549 C30.834,33.549 30.594,47.369 30.035,59.43 C30.035,59.43 29.795,61.826 29.556,64.143 C29.556,64.143 29.395,65.74 29.076,66.859 C29.076,66.859 28.757,67.897 28.038,68.935 C28.038,68.935 27.307,69.855 26.021,70.544 C26.021,70.544 25.78,70.671 25.342,70.813 C24.798,70.987 23.908,71.291 22.946,71.471 C22.766,71.505 22.585,71.538 22.404,71.574 C22.404,71.574 20.929,71.572 19.252,71.332 C19.252,71.332 17.415,70.933 14.699,69.255 C14.699,69.255 12.942,67.978 10.705,65.981 C10.705,65.981 8.948,64.144 6.711,61.587 L11.744,60.39 L0,54.996 L1.079,72.13 L3.235,65.9 C3.235,65.9 4.194,68.448 6.11,71.532 C7.166,73.229 8.746,75.017 10.064,76.803 C10.064,76.803 12.07,79.348 15.456,80.997 C17.71,82.094 20.659,82.291 23.724,82.914 C23.724,82.914 28.085,82.725 31.512,84.951 C33.171,86.029 34.018,88.606 35.176,90.268 C36.334,88.606 37.18,86.029 38.84,84.951 C42.267,82.724 46.627,82.914 46.627,82.914 C49.691,82.291 52.642,82.094 54.895,80.997 C58.28,79.348 60.287,76.803 60.287,76.803 C61.606,75.018 63.186,73.23 64.241,71.532 C66.157,68.448 67.117,65.9 67.117,65.9 L69.273,72.13 L70.352,54.996 L58.608,60.388 Z M35.176,5.174 C34.449,5.174 33.861,4.585 33.861,3.859 C33.861,3.132 34.449,2.544 35.176,2.544 C35.902,2.544 36.491,3.133 36.491,3.859 C36.491,4.585 35.902,5.174 35.176,5.174 Z"></path>
        </g>
    </g>
</svg>